Coordinates
version=1
nRows=9
nColumns=38
inDegrees=yes

Units are S.I. units (second, meters, Newtons, ...)
Angles are in degrees.

endheader
time	pelvis_tilt	pelvis_list	pelvis_rotation	pelvis_tx	pelvis_ty	pelvis_tz	hip_flexion_r	hip_adduction_r	hip_rotation_r	knee_angle_r	ankle_angle_r	subtalar_angle_r	mtp_angle_r	hip_flexion_l	hip_adduction_l	hip_rotation_l	knee_angle_l	ankle_angle_l	subtalar_angle_l	mtp_angle_l	lumbar_extension	lumbar_bending	lumbar_rotation	arm_flex_r	arm_add_r	arm_rot_r	elbow_flex_r	pro_sup_r	wrist_flex_r	wrist_dev_r	arm_flex_l	arm_add_l	arm_rot_l	elbow_flex_l	pro_sup_l	wrist_flex_l	wrist_dev_l
      0.00000000	      0.19089245	     -4.87305772	      1.84274171	     -0.02341361	      0.86665410	      2.60038121	     17.58681409	      6.55540240	     -7.45405073	    -18.36107582	      0.82180969	      0.00000000	      0.00000000	      2.49380869	     -6.90758710	      3.47897233	    -56.42287995	    -25.49531580	      0.00000000	      0.00000000	     -6.56497491	      5.44882963	      0.55183828	      1.91875632	    -12.77912921	      0.00549612	      3.32412140	    106.99893483	      0.00000000	      0.00000000	     26.78361276	     -7.35762483	     25.75849330	    153.30962082	     61.09721012	      0.00000000	      0.00000000
      0.01000000	      0.07865624	     -4.61713717	      2.14093724	     -0.02484961	      0.86878462	      2.60108199	     16.60248014	      6.28907969	     -7.96251259	    -18.00311725	      1.41539371	      0.00000000	      0.00000000	      4.70478815	     -6.45838591	      3.65474518	    -58.42143500	    -23.29677054	      0.00000000	      0.00000000	     -6.52647006	      5.10617671	      0.53548849	      2.87906272	    -12.65434532	      0.05251420	      4.11560978	    105.69882409	      0.00000000	      0.00000000	     27.04029559	     -7.53413931	     25.84784755	    153.30837555	     60.86763099	      0.00000000	      0.00000000
      0.02000000	     -0.03506135	     -4.38620689	      2.44797843	     -0.02634298	      0.87059691	      2.60197503	     15.58900213	      6.06555518	     -8.51619512	    -17.57928058	      2.00655504	      0.00000000	      0.00000000	      6.95327576	     -5.99583512	      3.84334716	    -60.23681718	    -21.07591170	      0.00000000	      0.00000000	     -6.47682976	      4.77862542	      0.49908152	      3.87409351	    -12.53502041	      0.12845332	      4.95515344	    104.33249083	      0.00000000	      0.00000000	     27.27712297	     -7.70674885	     25.94911148	    153.29268662	     60.62918079	      0.00000000	      0.00000000
      0.03000000	     -0.15669008	     -4.18414990	      2.74871525	     -0.02781417	      0.87220893	      2.60295551	     14.54521571	      5.89307531	     -9.10105848	    -17.07617110	      2.57564043	      0.00000000	      0.00000000	      9.18591479	     -5.53158958	      4.02350480	    -61.77523289	    -18.85779084	      0.00000000	      0.00000000	     -6.41822043	      4.47804183	      0.45190815	      4.89492020	    -12.41968281	      0.24433210	      5.84584963	    102.92944195	      0.00000000	      0.00000000	     27.47954749	     -7.86889793	     26.06451240	    153.26336556	     60.38611162	      0.00000000	      0.00000000
      0.04000000	     -0.28821409	     -4.00940285	      3.01914650	     -0.02923379	      0.87375549	      2.60388397	     13.46516385	      5.77086659	     -9.68705666	    -16.48743723	      3.09924191	      0.00000000	      0.00000000	     11.34094110	     -5.08012577	      4.15910962	    -62.95340443	    -16.66423043	      0.00000000	      0.00000000	     -6.35639409	      4.21092264	      0.41481492	      5.93125171	    -12.30552863	      0.40926272	      6.78996153	    101.53990356	      0.00000000	      0.00000000	     27.63276442	     -8.01342720	     26.19496473	    153.22520635	     60.14478792	      0.00000000	      0.00000000
      0.05000000	     -0.41490579	     -3.85272960	      3.22991912	     -0.03065869	      0.87523943	      2.60474727	     12.33853485	      5.68810853	    -10.23084832	    -15.81983762	      3.55859156	      0.00000000	      0.00000000	     13.37718370	     -4.65258778	      4.20784178	    -63.72396747	    -14.50773541	      0.00000000	      0.00000000	     -6.30053439	      3.96793532	      0.41730540	      6.97719364	    -12.19111761	      0.62420941	      7.79061636	    100.22347992	      0.00000000	      0.00000000	     27.72779420	     -8.13568788	     26.33823622	    153.18520535	     59.91152044	      0.00000000	      0.00000000
      0.06000000	     -0.51485690	     -3.69749276	      3.35324542	     -0.03210908	      0.87661512	      2.60566073	     11.15992359	      5.62998754	    -10.68470122	    -15.09202631	      3.94513440	      0.00000000	      0.00000000	     15.27364977	     -4.25556580	      4.13762423	    -64.07516653	    -12.40520958	      0.00000000	      0.00000000	     -6.26169519	      3.72538607	      0.48678137	      8.02908134	    -12.07586063	      0.87950362	      8.85217710	     99.03324699	      0.00000000	      0.00000000	     27.76438011	     -8.23499204	     26.48802915	    153.14844390	     59.69081739	      0.00000000	      0.00000000
      0.07000000	     -0.58030606	     -3.52562155	      3.37236537	     -0.03352146	      0.87791751	      2.60670021	      9.93609727	      5.58147747	    -11.00796173	    -14.33071963	      4.26298398	      0.00000000	      0.00000000	     17.01125362	     -3.89200356	      3.93948636	    -64.02033411	    -10.39329313	      0.00000000	      0.00000000	     -6.24879331	      3.45891240	      0.63766008	      9.07954988	    -11.95646834	      1.15739321	      9.97953393	     98.00279613	      0.00000000	      0.00000000	     27.74986481	     -8.31360285	     26.63540135	    153.11655445	     59.48552869	      0.00000000	      0.00000000
      0.08000000	     -0.61676294	     -3.32567996	      3.28852854	     -0.03484105	      0.87915721	      2.60786084	      8.68159797	      5.52952548	    -11.17844758	    -13.56792266	      4.52974310	      0.00000000	      0.00000000	     18.57566750	     -3.56156587	      3.62896971	    -63.57863415	     -8.52375400	      0.00000000	      0.00000000	     -6.26400034	      3.15563478	      0.86706223	     10.11771826	    -11.82727034	      1.43816529	     11.17842473	     97.14009977	      0.00000000	      0.00000000	     27.69552500	     -8.37439936	     26.77183563	    153.08923072	     59.29871734	      0.00000000	      0.00000000
